<mxfile host="app.diagrams.net" agent="Mozilla/5.0 (Windows NT 10.0; Win64; x64) AppleWebKit/537.36 (KHTML, like Gecko) Chrome/130.0.0.0 Safari/537.36 OPR/115.0.0.0" version="26.0.5" pages="4">
  <diagram name="PÃ¡gina-1" id="LVS8QEgUwdBSIfG0xf52">
    <mxGraphModel dx="1392" dy="761" grid="1" gridSize="10" guides="1" tooltips="1" connect="1" arrows="1" fold="1" page="1" pageScale="1" pageWidth="827" pageHeight="1169" math="0" shadow="0">
      <root>
        <mxCell id="0" />
        <mxCell id="1" parent="0" />
        <mxCell id="By56YjRKpKH9Hx95QMmv-4" style="edgeStyle=orthogonalEdgeStyle;rounded=0;orthogonalLoop=1;jettySize=auto;html=1;entryX=0.5;entryY=0;entryDx=0;entryDy=0;" edge="1" parent="1" source="gNzia5zaHxIqO197l_py-1" target="By56YjRKpKH9Hx95QMmv-1">
          <mxGeometry relative="1" as="geometry" />
        </mxCell>
        <mxCell id="gNzia5zaHxIqO197l_py-1" value="INICIO" style="strokeWidth=2;html=1;shape=mxgraph.flowchart.start_1;whiteSpace=wrap;" vertex="1" parent="1">
          <mxGeometry x="313" y="10" width="100" height="60" as="geometry" />
        </mxCell>
        <mxCell id="gNzia5zaHxIqO197l_py-2" value="FIM" style="strokeWidth=2;html=1;shape=mxgraph.flowchart.start_1;whiteSpace=wrap;" vertex="1" parent="1">
          <mxGeometry x="310" y="550" width="100" height="60" as="geometry" />
        </mxCell>
        <mxCell id="gNzia5zaHxIqO197l_py-8" style="edgeStyle=orthogonalEdgeStyle;rounded=0;orthogonalLoop=1;jettySize=auto;html=1;entryX=0.5;entryY=0;entryDx=0;entryDy=0;" edge="1" parent="1" source="gNzia5zaHxIqO197l_py-4" target="gNzia5zaHxIqO197l_py-5">
          <mxGeometry relative="1" as="geometry" />
        </mxCell>
        <UserObject label="INICIALIZAR" link="data:page/id,UtYGhDxoADzD9o7i7L-3" id="gNzia5zaHxIqO197l_py-4">
          <mxCell style="shape=process;whiteSpace=wrap;html=1;backgroundOutline=1;" vertex="1" parent="1">
            <mxGeometry x="300" y="190" width="120" height="60" as="geometry" />
          </mxCell>
        </UserObject>
        <mxCell id="gNzia5zaHxIqO197l_py-9" style="edgeStyle=orthogonalEdgeStyle;rounded=0;orthogonalLoop=1;jettySize=auto;html=1;entryX=0.5;entryY=0;entryDx=0;entryDy=0;" edge="1" parent="1" source="gNzia5zaHxIqO197l_py-5" target="gNzia5zaHxIqO197l_py-6">
          <mxGeometry relative="1" as="geometry" />
        </mxCell>
        <UserObject label="PROCESSAR" link="data:page/id,CXI0tGDpvQX6VS9336eu" id="gNzia5zaHxIqO197l_py-5">
          <mxCell style="shape=process;whiteSpace=wrap;html=1;backgroundOutline=1;" vertex="1" parent="1">
            <mxGeometry x="300" y="310" width="120" height="60" as="geometry" />
          </mxCell>
        </UserObject>
        <UserObject label="FINALIZAR" link="data:page/id,xuyAdb7t0tSYVyNBRwXM" id="gNzia5zaHxIqO197l_py-6">
          <mxCell style="shape=process;whiteSpace=wrap;html=1;backgroundOutline=1;" vertex="1" parent="1">
            <mxGeometry x="300" y="420" width="120" height="60" as="geometry" />
          </mxCell>
        </UserObject>
        <mxCell id="gNzia5zaHxIqO197l_py-10" style="edgeStyle=orthogonalEdgeStyle;rounded=0;orthogonalLoop=1;jettySize=auto;html=1;entryX=0.5;entryY=0;entryDx=0;entryDy=0;entryPerimeter=0;" edge="1" parent="1" source="gNzia5zaHxIqO197l_py-6" target="gNzia5zaHxIqO197l_py-2">
          <mxGeometry relative="1" as="geometry" />
        </mxCell>
        <mxCell id="By56YjRKpKH9Hx95QMmv-3" style="edgeStyle=orthogonalEdgeStyle;rounded=0;orthogonalLoop=1;jettySize=auto;html=1;exitX=0.5;exitY=1;exitDx=0;exitDy=0;entryX=0.5;entryY=0;entryDx=0;entryDy=0;" edge="1" parent="1" source="By56YjRKpKH9Hx95QMmv-1" target="gNzia5zaHxIqO197l_py-4">
          <mxGeometry relative="1" as="geometry" />
        </mxCell>
        <mxCell id="By56YjRKpKH9Hx95QMmv-1" value="TOTOPPER = 0&lt;div&gt;NUM1&lt;/div&gt;&lt;div&gt;NUM2&lt;/div&gt;" style="shape=parallelogram;html=1;strokeWidth=2;perimeter=parallelogramPerimeter;whiteSpace=wrap;rounded=1;arcSize=12;size=0.23;" vertex="1" parent="1">
          <mxGeometry x="300" y="100" width="126" height="60" as="geometry" />
        </mxCell>
      </root>
    </mxGraphModel>
  </diagram>
  <diagram id="UtYGhDxoADzD9o7i7L-3" name="INICIALIZAR">
    <mxGraphModel dx="1392" dy="761" grid="1" gridSize="10" guides="1" tooltips="1" connect="1" arrows="1" fold="1" page="1" pageScale="1" pageWidth="827" pageHeight="1169" math="0" shadow="0">
      <root>
        <mxCell id="0" />
        <mxCell id="1" parent="0" />
        <mxCell id="jVvILf5UfQraBgYZYYQF-2" value="INICIALIZAR" style="strokeWidth=2;html=1;shape=mxgraph.flowchart.start_1;whiteSpace=wrap;" vertex="1" parent="1">
          <mxGeometry x="340" y="130" width="100" height="60" as="geometry" />
        </mxCell>
        <mxCell id="jVvILf5UfQraBgYZYYQF-3" value="FIM" style="strokeWidth=2;html=1;shape=mxgraph.flowchart.start_1;whiteSpace=wrap;" vertex="1" parent="1">
          <mxGeometry x="340" y="340" width="100" height="60" as="geometry" />
        </mxCell>
        <mxCell id="jVvILf5UfQraBgYZYYQF-4" value="NUM1&lt;div&gt;NUM2&lt;/div&gt;" style="html=1;strokeWidth=2;shape=manualInput;whiteSpace=wrap;rounded=1;size=26;arcSize=11;" vertex="1" parent="1">
          <mxGeometry x="340" y="220" width="100" height="60" as="geometry" />
        </mxCell>
        <mxCell id="jVvILf5UfQraBgYZYYQF-7" style="edgeStyle=orthogonalEdgeStyle;rounded=0;orthogonalLoop=1;jettySize=auto;html=1;entryX=0.5;entryY=0;entryDx=0;entryDy=0;entryPerimeter=0;" edge="1" parent="1" source="jVvILf5UfQraBgYZYYQF-4" target="jVvILf5UfQraBgYZYYQF-3">
          <mxGeometry relative="1" as="geometry" />
        </mxCell>
        <mxCell id="26T0iQEKliSovS1UV4kb-2" style="edgeStyle=orthogonalEdgeStyle;rounded=0;orthogonalLoop=1;jettySize=auto;html=1;entryX=0.5;entryY=0.283;entryDx=0;entryDy=0;entryPerimeter=0;" edge="1" parent="1" source="jVvILf5UfQraBgYZYYQF-2" target="jVvILf5UfQraBgYZYYQF-4">
          <mxGeometry relative="1" as="geometry" />
        </mxCell>
      </root>
    </mxGraphModel>
  </diagram>
  <diagram id="CXI0tGDpvQX6VS9336eu" name="PROCESSAR">
    <mxGraphModel dx="1392" dy="761" grid="1" gridSize="10" guides="1" tooltips="1" connect="1" arrows="1" fold="1" page="1" pageScale="1" pageWidth="827" pageHeight="1169" math="0" shadow="0">
      <root>
        <mxCell id="0" />
        <mxCell id="1" parent="0" />
        <mxCell id="_wuzEYjt8n6FmNXR5sHa-1" value="PROCESSAR" style="strokeWidth=2;html=1;shape=mxgraph.flowchart.start_1;whiteSpace=wrap;" vertex="1" parent="1">
          <mxGeometry x="110" y="70" width="100" height="60" as="geometry" />
        </mxCell>
        <mxCell id="_wuzEYjt8n6FmNXR5sHa-2" value="FIM" style="strokeWidth=2;html=1;shape=mxgraph.flowchart.start_1;whiteSpace=wrap;" vertex="1" parent="1">
          <mxGeometry x="110" y="790" width="100" height="60" as="geometry" />
        </mxCell>
        <mxCell id="_wuzEYjt8n6FmNXR5sHa-47" style="edgeStyle=orthogonalEdgeStyle;rounded=0;orthogonalLoop=1;jettySize=auto;html=1;" edge="1" parent="1" source="_wuzEYjt8n6FmNXR5sHa-3" target="_wuzEYjt8n6FmNXR5sHa-10">
          <mxGeometry relative="1" as="geometry" />
        </mxCell>
        <mxCell id="_wuzEYjt8n6FmNXR5sHa-3" value="NUM1&lt;div&gt;NUM2&lt;/div&gt;" style="strokeWidth=2;html=1;shape=mxgraph.flowchart.display;whiteSpace=wrap;" vertex="1" parent="1">
          <mxGeometry x="110" y="170" width="100" height="60" as="geometry" />
        </mxCell>
        <mxCell id="_wuzEYjt8n6FmNXR5sHa-4" style="edgeStyle=orthogonalEdgeStyle;rounded=0;orthogonalLoop=1;jettySize=auto;html=1;entryX=0.5;entryY=0;entryDx=0;entryDy=0;entryPerimeter=0;" edge="1" parent="1" source="_wuzEYjt8n6FmNXR5sHa-1" target="_wuzEYjt8n6FmNXR5sHa-3">
          <mxGeometry relative="1" as="geometry" />
        </mxCell>
        <mxCell id="_wuzEYjt8n6FmNXR5sHa-5" value="RES = NUM1 + NUM2&lt;div&gt;TOTOPPER += 1&lt;/div&gt;" style="rounded=1;whiteSpace=wrap;html=1;absoluteArcSize=1;arcSize=14;strokeWidth=2;" vertex="1" parent="1">
          <mxGeometry x="279" y="170" width="150" height="40" as="geometry" />
        </mxCell>
        <mxCell id="_wuzEYjt8n6FmNXR5sHa-6" value="RES" style="strokeWidth=2;html=1;shape=mxgraph.flowchart.display;whiteSpace=wrap;" vertex="1" parent="1">
          <mxGeometry x="300" y="250" width="100" height="60" as="geometry" />
        </mxCell>
        <mxCell id="_wuzEYjt8n6FmNXR5sHa-50" style="edgeStyle=orthogonalEdgeStyle;rounded=0;orthogonalLoop=1;jettySize=auto;html=1;" edge="1" parent="1" source="_wuzEYjt8n6FmNXR5sHa-7" target="_wuzEYjt8n6FmNXR5sHa-8">
          <mxGeometry relative="1" as="geometry" />
        </mxCell>
        <mxCell id="_wuzEYjt8n6FmNXR5sHa-7" value="DIVISAO" style="shape=process;whiteSpace=wrap;html=1;backgroundOutline=1;" vertex="1" parent="1">
          <mxGeometry x="100" y="460" width="120" height="60" as="geometry" />
        </mxCell>
        <mxCell id="_wuzEYjt8n6FmNXR5sHa-51" style="edgeStyle=orthogonalEdgeStyle;rounded=0;orthogonalLoop=1;jettySize=auto;html=1;entryX=0.5;entryY=0;entryDx=0;entryDy=0;" edge="1" parent="1" source="_wuzEYjt8n6FmNXR5sHa-8" target="_wuzEYjt8n6FmNXR5sHa-11">
          <mxGeometry relative="1" as="geometry" />
        </mxCell>
        <mxCell id="_wuzEYjt8n6FmNXR5sHa-8" value="MULTIPLICACAO" style="shape=process;whiteSpace=wrap;html=1;backgroundOutline=1;" vertex="1" parent="1">
          <mxGeometry x="100" y="555" width="120" height="60" as="geometry" />
        </mxCell>
        <mxCell id="_wuzEYjt8n6FmNXR5sHa-49" style="edgeStyle=orthogonalEdgeStyle;rounded=0;orthogonalLoop=1;jettySize=auto;html=1;entryX=0.5;entryY=0;entryDx=0;entryDy=0;" edge="1" parent="1" source="_wuzEYjt8n6FmNXR5sHa-9" target="_wuzEYjt8n6FmNXR5sHa-7">
          <mxGeometry relative="1" as="geometry" />
        </mxCell>
        <mxCell id="_wuzEYjt8n6FmNXR5sHa-9" value="SUBTRACAO" style="shape=process;whiteSpace=wrap;html=1;backgroundOutline=1;" vertex="1" parent="1">
          <mxGeometry x="100" y="360" width="120" height="60" as="geometry" />
        </mxCell>
        <mxCell id="_wuzEYjt8n6FmNXR5sHa-48" style="edgeStyle=orthogonalEdgeStyle;rounded=0;orthogonalLoop=1;jettySize=auto;html=1;entryX=0.5;entryY=0;entryDx=0;entryDy=0;" edge="1" parent="1" source="_wuzEYjt8n6FmNXR5sHa-10" target="_wuzEYjt8n6FmNXR5sHa-9">
          <mxGeometry relative="1" as="geometry" />
        </mxCell>
        <mxCell id="_wuzEYjt8n6FmNXR5sHa-10" value="SOMA" style="shape=process;whiteSpace=wrap;html=1;backgroundOutline=1;" vertex="1" parent="1">
          <mxGeometry x="100" y="260" width="120" height="60" as="geometry" />
        </mxCell>
        <mxCell id="_wuzEYjt8n6FmNXR5sHa-11" value="MEDIA" style="shape=process;whiteSpace=wrap;html=1;backgroundOutline=1;" vertex="1" parent="1">
          <mxGeometry x="100" y="650" width="120" height="60" as="geometry" />
        </mxCell>
        <mxCell id="_wuzEYjt8n6FmNXR5sHa-16" style="edgeStyle=orthogonalEdgeStyle;rounded=0;orthogonalLoop=1;jettySize=auto;html=1;entryX=0.5;entryY=0;entryDx=0;entryDy=0;" edge="1" parent="1" source="_wuzEYjt8n6FmNXR5sHa-13" target="_wuzEYjt8n6FmNXR5sHa-5">
          <mxGeometry relative="1" as="geometry" />
        </mxCell>
        <mxCell id="_wuzEYjt8n6FmNXR5sHa-13" value="SOMA" style="strokeWidth=2;html=1;shape=mxgraph.flowchart.start_1;whiteSpace=wrap;" vertex="1" parent="1">
          <mxGeometry x="304" y="70" width="100" height="60" as="geometry" />
        </mxCell>
        <mxCell id="_wuzEYjt8n6FmNXR5sHa-14" value="FIM" style="strokeWidth=2;html=1;shape=mxgraph.flowchart.start_1;whiteSpace=wrap;" vertex="1" parent="1">
          <mxGeometry x="290" y="360" width="100" height="60" as="geometry" />
        </mxCell>
        <mxCell id="_wuzEYjt8n6FmNXR5sHa-17" style="edgeStyle=orthogonalEdgeStyle;rounded=0;orthogonalLoop=1;jettySize=auto;html=1;entryX=0.57;entryY=-0.033;entryDx=0;entryDy=0;entryPerimeter=0;" edge="1" parent="1" source="_wuzEYjt8n6FmNXR5sHa-5" target="_wuzEYjt8n6FmNXR5sHa-6">
          <mxGeometry relative="1" as="geometry" />
        </mxCell>
        <mxCell id="_wuzEYjt8n6FmNXR5sHa-18" style="edgeStyle=orthogonalEdgeStyle;rounded=0;orthogonalLoop=1;jettySize=auto;html=1;entryX=0.58;entryY=0.05;entryDx=0;entryDy=0;entryPerimeter=0;" edge="1" parent="1" source="_wuzEYjt8n6FmNXR5sHa-6" target="_wuzEYjt8n6FmNXR5sHa-14">
          <mxGeometry relative="1" as="geometry" />
        </mxCell>
        <mxCell id="_wuzEYjt8n6FmNXR5sHa-19" value="RES = NUM1 - NUM2&lt;div&gt;TOTOPPER += 1&lt;/div&gt;" style="rounded=1;whiteSpace=wrap;html=1;absoluteArcSize=1;arcSize=14;strokeWidth=2;" vertex="1" parent="1">
          <mxGeometry x="480" y="170" width="150" height="40" as="geometry" />
        </mxCell>
        <mxCell id="_wuzEYjt8n6FmNXR5sHa-20" value="RES" style="strokeWidth=2;html=1;shape=mxgraph.flowchart.display;whiteSpace=wrap;" vertex="1" parent="1">
          <mxGeometry x="501" y="250" width="100" height="60" as="geometry" />
        </mxCell>
        <mxCell id="_wuzEYjt8n6FmNXR5sHa-21" style="edgeStyle=orthogonalEdgeStyle;rounded=0;orthogonalLoop=1;jettySize=auto;html=1;entryX=0.5;entryY=0;entryDx=0;entryDy=0;" edge="1" parent="1" source="_wuzEYjt8n6FmNXR5sHa-22" target="_wuzEYjt8n6FmNXR5sHa-19">
          <mxGeometry relative="1" as="geometry" />
        </mxCell>
        <mxCell id="_wuzEYjt8n6FmNXR5sHa-22" value="SUBTRACAO" style="strokeWidth=2;html=1;shape=mxgraph.flowchart.start_1;whiteSpace=wrap;" vertex="1" parent="1">
          <mxGeometry x="505" y="70" width="100" height="60" as="geometry" />
        </mxCell>
        <mxCell id="_wuzEYjt8n6FmNXR5sHa-23" value="FIM" style="strokeWidth=2;html=1;shape=mxgraph.flowchart.start_1;whiteSpace=wrap;" vertex="1" parent="1">
          <mxGeometry x="491" y="360" width="100" height="60" as="geometry" />
        </mxCell>
        <mxCell id="_wuzEYjt8n6FmNXR5sHa-24" style="edgeStyle=orthogonalEdgeStyle;rounded=0;orthogonalLoop=1;jettySize=auto;html=1;entryX=0.57;entryY=-0.033;entryDx=0;entryDy=0;entryPerimeter=0;" edge="1" parent="1" source="_wuzEYjt8n6FmNXR5sHa-19" target="_wuzEYjt8n6FmNXR5sHa-20">
          <mxGeometry relative="1" as="geometry" />
        </mxCell>
        <mxCell id="_wuzEYjt8n6FmNXR5sHa-25" style="edgeStyle=orthogonalEdgeStyle;rounded=0;orthogonalLoop=1;jettySize=auto;html=1;entryX=0.58;entryY=0.05;entryDx=0;entryDy=0;entryPerimeter=0;" edge="1" parent="1" source="_wuzEYjt8n6FmNXR5sHa-20" target="_wuzEYjt8n6FmNXR5sHa-23">
          <mxGeometry relative="1" as="geometry" />
        </mxCell>
        <mxCell id="_wuzEYjt8n6FmNXR5sHa-26" value="RES = NUM1 / NUM2&lt;div&gt;TOTOPPER += 1&lt;/div&gt;" style="rounded=1;whiteSpace=wrap;html=1;absoluteArcSize=1;arcSize=14;strokeWidth=2;" vertex="1" parent="1">
          <mxGeometry x="650" y="170" width="150" height="40" as="geometry" />
        </mxCell>
        <mxCell id="_wuzEYjt8n6FmNXR5sHa-27" value="RES" style="strokeWidth=2;html=1;shape=mxgraph.flowchart.display;whiteSpace=wrap;" vertex="1" parent="1">
          <mxGeometry x="671" y="250" width="100" height="60" as="geometry" />
        </mxCell>
        <mxCell id="_wuzEYjt8n6FmNXR5sHa-28" style="edgeStyle=orthogonalEdgeStyle;rounded=0;orthogonalLoop=1;jettySize=auto;html=1;entryX=0.5;entryY=0;entryDx=0;entryDy=0;" edge="1" parent="1" source="_wuzEYjt8n6FmNXR5sHa-29" target="_wuzEYjt8n6FmNXR5sHa-26">
          <mxGeometry relative="1" as="geometry" />
        </mxCell>
        <mxCell id="_wuzEYjt8n6FmNXR5sHa-29" value="DIVISAO" style="strokeWidth=2;html=1;shape=mxgraph.flowchart.start_1;whiteSpace=wrap;" vertex="1" parent="1">
          <mxGeometry x="675" y="70" width="100" height="60" as="geometry" />
        </mxCell>
        <mxCell id="_wuzEYjt8n6FmNXR5sHa-30" value="FIM" style="strokeWidth=2;html=1;shape=mxgraph.flowchart.start_1;whiteSpace=wrap;" vertex="1" parent="1">
          <mxGeometry x="661" y="360" width="100" height="60" as="geometry" />
        </mxCell>
        <mxCell id="_wuzEYjt8n6FmNXR5sHa-31" style="edgeStyle=orthogonalEdgeStyle;rounded=0;orthogonalLoop=1;jettySize=auto;html=1;entryX=0.57;entryY=-0.033;entryDx=0;entryDy=0;entryPerimeter=0;" edge="1" parent="1" source="_wuzEYjt8n6FmNXR5sHa-26" target="_wuzEYjt8n6FmNXR5sHa-27">
          <mxGeometry relative="1" as="geometry" />
        </mxCell>
        <mxCell id="_wuzEYjt8n6FmNXR5sHa-32" style="edgeStyle=orthogonalEdgeStyle;rounded=0;orthogonalLoop=1;jettySize=auto;html=1;entryX=0.58;entryY=0.05;entryDx=0;entryDy=0;entryPerimeter=0;" edge="1" parent="1" source="_wuzEYjt8n6FmNXR5sHa-27" target="_wuzEYjt8n6FmNXR5sHa-30">
          <mxGeometry relative="1" as="geometry" />
        </mxCell>
        <mxCell id="_wuzEYjt8n6FmNXR5sHa-33" value="RES = NUM1 * NUM2&lt;div&gt;TOTOPPER += 1&lt;/div&gt;" style="rounded=1;whiteSpace=wrap;html=1;absoluteArcSize=1;arcSize=14;strokeWidth=2;" vertex="1" parent="1">
          <mxGeometry x="860" y="170" width="150" height="40" as="geometry" />
        </mxCell>
        <mxCell id="_wuzEYjt8n6FmNXR5sHa-34" value="RES" style="strokeWidth=2;html=1;shape=mxgraph.flowchart.display;whiteSpace=wrap;" vertex="1" parent="1">
          <mxGeometry x="881" y="250" width="100" height="60" as="geometry" />
        </mxCell>
        <mxCell id="_wuzEYjt8n6FmNXR5sHa-35" style="edgeStyle=orthogonalEdgeStyle;rounded=0;orthogonalLoop=1;jettySize=auto;html=1;entryX=0.5;entryY=0;entryDx=0;entryDy=0;" edge="1" parent="1" source="_wuzEYjt8n6FmNXR5sHa-36" target="_wuzEYjt8n6FmNXR5sHa-33">
          <mxGeometry relative="1" as="geometry" />
        </mxCell>
        <mxCell id="_wuzEYjt8n6FmNXR5sHa-36" value="MULTIPLICACAO" style="strokeWidth=2;html=1;shape=mxgraph.flowchart.start_1;whiteSpace=wrap;" vertex="1" parent="1">
          <mxGeometry x="885" y="70" width="100" height="60" as="geometry" />
        </mxCell>
        <mxCell id="_wuzEYjt8n6FmNXR5sHa-37" value="FIM" style="strokeWidth=2;html=1;shape=mxgraph.flowchart.start_1;whiteSpace=wrap;" vertex="1" parent="1">
          <mxGeometry x="871" y="360" width="100" height="60" as="geometry" />
        </mxCell>
        <mxCell id="_wuzEYjt8n6FmNXR5sHa-38" style="edgeStyle=orthogonalEdgeStyle;rounded=0;orthogonalLoop=1;jettySize=auto;html=1;entryX=0.57;entryY=-0.033;entryDx=0;entryDy=0;entryPerimeter=0;" edge="1" parent="1" source="_wuzEYjt8n6FmNXR5sHa-33" target="_wuzEYjt8n6FmNXR5sHa-34">
          <mxGeometry relative="1" as="geometry" />
        </mxCell>
        <mxCell id="_wuzEYjt8n6FmNXR5sHa-39" style="edgeStyle=orthogonalEdgeStyle;rounded=0;orthogonalLoop=1;jettySize=auto;html=1;entryX=0.58;entryY=0.05;entryDx=0;entryDy=0;entryPerimeter=0;" edge="1" parent="1" source="_wuzEYjt8n6FmNXR5sHa-34" target="_wuzEYjt8n6FmNXR5sHa-37">
          <mxGeometry relative="1" as="geometry" />
        </mxCell>
        <mxCell id="_wuzEYjt8n6FmNXR5sHa-40" value="RES = (NUM1 + NUM2)/2&lt;div&gt;TOTOPPER += 1&lt;/div&gt;" style="rounded=1;whiteSpace=wrap;html=1;absoluteArcSize=1;arcSize=14;strokeWidth=2;" vertex="1" parent="1">
          <mxGeometry x="1060" y="170" width="150" height="40" as="geometry" />
        </mxCell>
        <mxCell id="_wuzEYjt8n6FmNXR5sHa-41" value="RES" style="strokeWidth=2;html=1;shape=mxgraph.flowchart.display;whiteSpace=wrap;" vertex="1" parent="1">
          <mxGeometry x="1081" y="250" width="100" height="60" as="geometry" />
        </mxCell>
        <mxCell id="_wuzEYjt8n6FmNXR5sHa-42" style="edgeStyle=orthogonalEdgeStyle;rounded=0;orthogonalLoop=1;jettySize=auto;html=1;entryX=0.5;entryY=0;entryDx=0;entryDy=0;" edge="1" parent="1" source="_wuzEYjt8n6FmNXR5sHa-43" target="_wuzEYjt8n6FmNXR5sHa-40">
          <mxGeometry relative="1" as="geometry" />
        </mxCell>
        <mxCell id="_wuzEYjt8n6FmNXR5sHa-43" value="MEDIA" style="strokeWidth=2;html=1;shape=mxgraph.flowchart.start_1;whiteSpace=wrap;" vertex="1" parent="1">
          <mxGeometry x="1085" y="70" width="100" height="60" as="geometry" />
        </mxCell>
        <mxCell id="_wuzEYjt8n6FmNXR5sHa-44" value="FIM" style="strokeWidth=2;html=1;shape=mxgraph.flowchart.start_1;whiteSpace=wrap;" vertex="1" parent="1">
          <mxGeometry x="1071" y="360" width="100" height="60" as="geometry" />
        </mxCell>
        <mxCell id="_wuzEYjt8n6FmNXR5sHa-45" style="edgeStyle=orthogonalEdgeStyle;rounded=0;orthogonalLoop=1;jettySize=auto;html=1;entryX=0.57;entryY=-0.033;entryDx=0;entryDy=0;entryPerimeter=0;" edge="1" parent="1" source="_wuzEYjt8n6FmNXR5sHa-40" target="_wuzEYjt8n6FmNXR5sHa-41">
          <mxGeometry relative="1" as="geometry" />
        </mxCell>
        <mxCell id="_wuzEYjt8n6FmNXR5sHa-46" style="edgeStyle=orthogonalEdgeStyle;rounded=0;orthogonalLoop=1;jettySize=auto;html=1;entryX=0.58;entryY=0.05;entryDx=0;entryDy=0;entryPerimeter=0;" edge="1" parent="1" source="_wuzEYjt8n6FmNXR5sHa-41" target="_wuzEYjt8n6FmNXR5sHa-44">
          <mxGeometry relative="1" as="geometry" />
        </mxCell>
        <mxCell id="_wuzEYjt8n6FmNXR5sHa-52" style="edgeStyle=orthogonalEdgeStyle;rounded=0;orthogonalLoop=1;jettySize=auto;html=1;entryX=0.5;entryY=0;entryDx=0;entryDy=0;entryPerimeter=0;" edge="1" parent="1" source="_wuzEYjt8n6FmNXR5sHa-11" target="_wuzEYjt8n6FmNXR5sHa-2">
          <mxGeometry relative="1" as="geometry" />
        </mxCell>
      </root>
    </mxGraphModel>
  </diagram>
  <diagram id="xuyAdb7t0tSYVyNBRwXM" name="FINALIZAR">
    <mxGraphModel dx="1392" dy="761" grid="1" gridSize="10" guides="1" tooltips="1" connect="1" arrows="1" fold="1" page="1" pageScale="1" pageWidth="827" pageHeight="1169" math="0" shadow="0">
      <root>
        <mxCell id="0" />
        <mxCell id="1" parent="0" />
        <mxCell id="Assz66blKJQIv-Ejqau_-2" value="TOTOPPER" style="strokeWidth=2;html=1;shape=mxgraph.flowchart.display;whiteSpace=wrap;" vertex="1" parent="1">
          <mxGeometry x="304" y="210" width="100" height="60" as="geometry" />
        </mxCell>
        <mxCell id="Assz66blKJQIv-Ejqau_-4" value="FINALIZAR" style="strokeWidth=2;html=1;shape=mxgraph.flowchart.start_1;whiteSpace=wrap;" vertex="1" parent="1">
          <mxGeometry x="304" y="70" width="100" height="60" as="geometry" />
        </mxCell>
        <mxCell id="Assz66blKJQIv-Ejqau_-5" value="FIM" style="strokeWidth=2;html=1;shape=mxgraph.flowchart.start_1;whiteSpace=wrap;" vertex="1" parent="1">
          <mxGeometry x="304" y="340" width="100" height="60" as="geometry" />
        </mxCell>
        <mxCell id="p-2y-uTorpfbWKF8JkTB-1" style="edgeStyle=orthogonalEdgeStyle;rounded=0;orthogonalLoop=1;jettySize=auto;html=1;entryX=0.5;entryY=0;entryDx=0;entryDy=0;entryPerimeter=0;" edge="1" parent="1" source="Assz66blKJQIv-Ejqau_-4" target="Assz66blKJQIv-Ejqau_-2">
          <mxGeometry relative="1" as="geometry" />
        </mxCell>
        <mxCell id="p-2y-uTorpfbWKF8JkTB-2" style="edgeStyle=orthogonalEdgeStyle;rounded=0;orthogonalLoop=1;jettySize=auto;html=1;entryX=0.5;entryY=0;entryDx=0;entryDy=0;entryPerimeter=0;" edge="1" parent="1" source="Assz66blKJQIv-Ejqau_-2" target="Assz66blKJQIv-Ejqau_-5">
          <mxGeometry relative="1" as="geometry" />
        </mxCell>
      </root>
    </mxGraphModel>
  </diagram>
</mxfile>
